<svg width="410" height="66" viewBox="0 0 410 66" fill="none" xmlns="http://www.w3.org/2000/svg">
<path d="M95.047 50.8186C92.8273 50.8186 90.7771 50.3854 88.8811 49.519C86.9851 48.6526 85.3666 47.4613 84.0101 45.9297C82.6536 44.398 81.59 42.6189 80.8347 40.5767C80.0793 38.5345 79.694 36.3376 79.694 33.986C79.694 31.6343 80.0485 29.4529 80.773 27.4262C81.4975 25.3995 82.484 23.6357 83.7634 22.1041C85.0429 20.5724 86.5535 19.3812 88.3262 18.5148C90.0989 17.6484 92.0257 17.2152 94.1221 17.2152C96.5114 17.2152 98.654 17.7876 100.565 18.948C102.477 20.1083 103.972 21.609 105.036 23.4656V5.02393H113.298V40.6695C113.298 41.5359 113.437 42.1547 113.73 42.526C114.022 42.8973 114.516 43.0985 115.209 43.1449V50.1997C113.776 50.4937 112.604 50.6329 111.695 50.6329C110.215 50.6329 108.997 50.2616 108.057 49.519C107.117 48.7764 106.577 47.8017 106.454 46.6104L106.269 44.5682C105.082 46.6259 103.463 48.1885 101.429 49.2405C99.394 50.2771 97.2667 50.8186 95.047 50.8186ZM97.2051 43.7637C97.9912 43.7637 98.7928 43.6245 99.6098 43.3615C100.427 43.0985 101.197 42.7117 101.891 42.2166C102.585 41.7215 103.217 41.1491 103.772 40.4838C104.327 39.8186 104.743 39.1069 105.036 38.3179V30.5823C104.712 29.6695 104.25 28.8341 103.648 28.076C103.047 27.3179 102.369 26.6526 101.614 26.0957C100.858 25.5387 100.057 25.09 99.209 24.7651C98.3612 24.4402 97.5288 24.2701 96.7118 24.2701C95.4786 24.2701 94.3379 24.5331 93.2897 25.0746C92.2415 25.616 91.3475 26.3432 90.6076 27.2715C89.8677 28.1997 89.2973 29.2672 88.8811 30.4585C88.4649 31.6498 88.2645 32.8875 88.2645 34.1716C88.2645 35.5331 88.4958 36.7862 88.9428 37.9466C89.3898 39.1069 90.0064 40.1125 90.7926 40.9789C91.5787 41.8453 92.5036 42.526 93.598 43.0211C94.6925 43.5162 95.8948 43.7637 97.2051 43.7637Z" fill="white"/>
<path d="M136.42 50.8186C133.83 50.8186 131.487 50.3699 129.391 49.4881C127.295 48.6062 125.506 47.3995 124.027 45.8678C122.547 44.3362 121.406 42.5725 120.605 40.5457C119.803 38.519 119.402 36.3995 119.402 34.1716C119.402 31.8664 119.788 29.685 120.574 27.6428C121.36 25.6006 122.485 23.8059 123.965 22.2588C125.445 20.7117 127.248 19.4895 129.36 18.5767C131.472 17.6639 133.846 17.2152 136.482 17.2152C139.118 17.2152 141.461 17.6639 143.542 18.5767C145.623 19.4895 147.38 20.6962 148.844 22.2279C150.309 23.7595 151.419 25.5232 152.174 27.55C152.929 29.5767 153.315 31.6808 153.315 33.8622C153.315 34.4037 153.299 34.9142 153.284 35.4093C153.268 35.9044 153.207 36.3221 153.13 36.647H128.158C128.281 37.9311 128.589 39.0605 129.083 40.0507C129.576 41.0408 130.208 41.8917 130.994 42.5879C131.78 43.2841 132.659 43.8256 133.645 44.1969C134.632 44.5682 135.665 44.7539 136.728 44.7539C138.378 44.7539 139.919 44.3516 141.384 43.5471C142.848 42.7426 143.835 41.6751 144.374 40.3601L151.465 42.3404C150.278 44.8158 148.366 46.8425 145.761 48.436C143.156 50.0141 140.042 50.8186 136.42 50.8186ZM144.806 31.263C144.605 28.8341 143.711 26.8847 142.123 25.4149C140.536 23.9452 138.624 23.218 136.358 23.218C135.249 23.218 134.216 23.4191 133.245 23.8059C132.273 24.1927 131.426 24.7497 130.686 25.4459C129.946 26.1421 129.345 26.993 128.867 27.9831C128.389 28.9733 128.112 30.0718 128.034 31.263H144.806V31.263Z" fill="white"/>
<path d="M173.354 50.8186C170.764 50.8186 168.421 50.3699 166.325 49.4881C164.228 48.6062 162.44 47.3995 160.96 45.8678C159.48 44.3362 158.34 42.5725 157.538 40.5457C156.737 38.519 156.336 36.3995 156.336 34.1716C156.336 31.8664 156.721 29.685 157.507 27.6428C158.294 25.6006 159.419 23.8059 160.899 22.2588C162.378 20.7117 164.182 19.4895 166.294 18.5767C168.406 17.6639 170.779 17.2152 173.415 17.2152C176.051 17.2152 178.394 17.6639 180.475 18.5767C182.556 19.4895 184.313 20.6962 185.778 22.2279C187.242 23.7595 188.352 25.5232 189.107 27.55C189.863 29.5767 190.248 31.6808 190.248 33.8622C190.248 34.4037 190.233 34.9142 190.217 35.4093C190.202 35.9044 190.14 36.3221 190.063 36.647H165.091C165.215 37.9311 165.523 39.0605 166.016 40.0507C166.51 41.0408 167.142 41.8917 167.928 42.5879C168.714 43.2841 169.592 43.8256 170.579 44.1969C171.566 44.5682 172.598 44.7539 173.662 44.7539C175.311 44.7539 176.853 44.3516 178.317 43.5471C179.782 42.7426 180.768 41.6751 181.308 40.3601L188.398 42.3404C187.211 44.8158 185.3 46.8425 182.695 48.436C180.09 50.0141 176.961 50.8186 173.354 50.8186ZM181.739 31.263C181.539 28.8341 180.645 26.8847 179.057 25.4149C177.469 23.9452 175.558 23.218 173.292 23.218C172.182 23.218 171.149 23.4191 170.178 23.8059C169.207 24.1927 168.359 24.7497 167.619 25.4459C166.879 26.1421 166.278 26.993 165.8 27.9831C165.323 28.9733 165.045 30.0718 164.968 31.263H181.739V31.263Z" fill="white"/>
<path d="M214.665 50.8186C212.122 50.8186 209.902 50.2461 208.006 49.1168C206.11 47.9874 204.63 46.4402 203.566 44.5063V63.3812H195.304V17.7722H202.518V23.3418C203.705 21.4388 205.247 19.9536 207.143 18.8552C209.039 17.7567 211.212 17.2152 213.678 17.2152C215.852 17.2152 217.871 17.6639 219.721 18.5457C221.571 19.4276 223.159 20.6343 224.5 22.135C225.841 23.6357 226.889 25.4149 227.644 27.4571C228.399 29.4993 228.785 31.6498 228.785 33.9241C228.785 36.2757 228.43 38.4881 227.737 40.5457C227.043 42.6034 226.056 44.398 224.808 45.9297C223.559 47.4613 222.064 48.6526 220.338 49.519C218.611 50.3854 216.715 50.8186 214.665 50.8186ZM211.89 43.7637C213.124 43.7637 214.264 43.5007 215.312 42.9592C216.361 42.4177 217.255 41.7061 217.995 40.7933C218.734 39.8805 219.305 38.8284 219.721 37.6371C220.137 36.4459 220.338 35.2082 220.338 33.9241C220.338 32.5626 220.106 31.294 219.659 30.1182C219.212 28.9424 218.58 27.9213 217.779 27.0549C216.977 26.1885 216.037 25.5078 214.942 25.0127C213.848 24.5176 212.677 24.2701 211.397 24.2701C210.611 24.2701 209.809 24.4093 208.992 24.6723C208.175 24.9353 207.405 25.3221 206.711 25.8172C206.017 26.3123 205.385 26.8847 204.83 27.5499C204.276 28.2152 203.859 28.9269 203.566 29.7159V37.3277C204.306 39.1843 205.432 40.7159 206.958 41.9381C208.484 43.1449 210.118 43.7637 211.89 43.7637Z" fill="white"/>
<path d="M247.837 50.8186C245.664 50.8186 243.645 50.3699 241.795 49.4881C239.945 48.6062 238.342 47.3995 236.985 45.8678C235.629 44.3362 234.565 42.557 233.81 40.5148C233.055 38.4726 232.669 36.2757 232.669 33.9241C232.669 31.6498 233.024 29.5148 233.748 27.519C234.473 25.5232 235.475 23.7595 236.77 22.2279C238.065 20.6962 239.591 19.4895 241.332 18.6076C243.074 17.7258 245.001 17.2771 247.098 17.2771C249.687 17.2771 251.969 17.9114 253.942 19.1646C255.915 20.4177 257.456 22.0267 258.566 23.9606V5.02393H265.349V42.1547C265.349 42.9438 265.487 43.5007 265.749 43.8256C266.011 44.1505 266.505 44.3362 267.198 44.3826V50.1997C266.505 50.3235 265.934 50.4009 265.503 50.4473C265.071 50.4937 264.717 50.5092 264.424 50.5092C263.067 50.5092 261.957 50.1533 261.094 49.4571C260.231 48.7609 259.753 47.8481 259.676 46.7342L259.553 44.3207C258.366 46.3474 256.732 47.9255 254.682 49.0858C252.631 50.2307 250.335 50.8186 247.837 50.8186ZM249.502 45.0014C250.489 45.0014 251.475 44.8312 252.462 44.5063C253.448 44.1815 254.358 43.7173 255.175 43.1449C255.992 42.5724 256.701 41.8917 257.302 41.1027C257.903 40.3137 258.319 39.4782 258.566 38.5654V30.0872C258.196 29.0507 257.672 28.1069 256.994 27.2405C256.316 26.3741 255.545 25.6315 254.682 25.0127C253.818 24.3938 252.909 23.9142 251.938 23.5893C250.967 23.2644 249.995 23.0942 249.009 23.0942C247.652 23.0942 246.404 23.4037 245.279 24.0225C244.153 24.6414 243.167 25.4613 242.35 26.4979C241.533 27.5345 240.885 28.7103 240.408 30.0253C239.93 31.3404 239.698 32.7018 239.698 34.1097C239.698 35.595 239.961 37.0028 240.469 38.3179C240.978 39.6329 241.687 40.7933 242.596 41.7834C243.506 42.7736 244.539 43.5626 245.71 44.135C246.882 44.7075 248.146 45.0014 249.502 45.0014Z" fill="white"/>
<path d="M273.981 12.512V5.02393H280.763V12.512H273.981V12.512ZM273.981 50.1997V17.8341H280.763V50.1997H273.981Z" fill="white"/>
<path d="M297.473 50.8186C295.916 50.8186 294.467 50.5556 293.126 50.045C291.785 49.5345 290.644 48.8228 289.673 47.91C288.702 46.9972 287.946 45.9297 287.392 44.692C286.837 43.4543 286.559 42.1083 286.559 40.6695C286.559 39.1379 286.883 37.7609 287.546 36.5232C288.208 35.2855 289.133 34.218 290.351 33.3052C291.569 32.3924 293.002 31.6962 294.667 31.2011C296.332 30.7061 298.166 30.4585 300.186 30.4585C301.712 30.4585 303.207 30.5978 304.687 30.8608C306.167 31.1238 307.508 31.4951 308.695 31.9438V29.7159C308.695 27.3179 308.016 25.4613 306.66 24.1154C305.303 22.7694 303.346 22.1041 300.802 22.1041C299.076 22.1041 297.38 22.429 295.715 23.0633C294.051 23.6976 292.34 24.6259 290.567 25.8172L288.471 21.4853C292.617 18.685 296.933 17.2771 301.419 17.2771C305.858 17.2771 309.311 18.4065 311.778 20.6808C314.244 22.955 315.477 26.204 315.477 30.4585V42.1547C315.477 43.5936 316.078 44.3362 317.265 44.3826V50.1997C316.602 50.3235 316.047 50.4009 315.57 50.4473C315.092 50.4937 314.629 50.5092 314.182 50.5092C312.872 50.5092 311.855 50.1843 311.13 49.519C310.406 48.8538 309.974 48.0183 309.804 46.9817L309.62 44.9395C308.186 46.8425 306.398 48.2968 304.286 49.3024C302.159 50.308 299.893 50.8186 297.473 50.8186ZM299.322 45.8059C300.972 45.8059 302.513 45.512 303.978 44.9086C305.442 44.3052 306.583 43.4698 307.4 42.4023C308.263 41.6597 308.695 40.8706 308.695 40.0507V35.7806C307.539 35.332 306.321 34.9761 305.026 34.7286C303.731 34.481 302.467 34.3573 301.234 34.3573C298.814 34.3573 296.825 34.8833 295.284 35.9353C293.742 36.9874 292.972 38.3798 292.972 40.1125C292.972 41.7215 293.573 43.0675 294.76 44.166C295.947 45.249 297.473 45.8059 299.322 45.8059Z" fill="white"/>
<path d="M323.739 5.02393H330.522V40.8552C330.522 42.0464 330.83 42.9902 331.447 43.6709C332.063 44.3516 332.927 44.692 334.036 44.692C334.483 44.692 335.008 44.6146 335.609 44.4445C336.21 44.2743 336.765 44.0886 337.304 43.8875L338.291 49.2096C337.304 49.6582 336.133 50.0296 334.776 50.2926C333.42 50.5556 332.202 50.6948 331.138 50.6948C328.795 50.6948 326.976 50.0605 325.682 48.7764C324.387 47.4923 323.739 45.6822 323.739 43.3305V5.02393Z" fill="white"/>
<path d="M356.727 50.8186C354.183 50.8186 351.887 50.3699 349.852 49.4571C347.817 48.5443 346.075 47.3376 344.642 45.8059C343.208 44.2743 342.098 42.4951 341.312 40.4529C340.526 38.4107 340.141 36.2757 340.141 34.0478C340.141 31.82 340.526 29.685 341.312 27.6428C342.098 25.6006 343.208 23.8214 344.673 22.2898C346.137 20.7581 347.879 19.5514 349.914 18.6386C351.948 17.7258 354.214 17.2771 356.727 17.2771C359.239 17.2771 361.505 17.7258 363.54 18.6386C365.575 19.5514 367.317 20.7581 368.781 22.2898C370.246 23.8214 371.355 25.6006 372.142 27.6428C372.928 29.685 373.313 31.82 373.313 34.0478C373.313 36.2757 372.928 38.4107 372.142 40.4529C371.355 42.4951 370.246 44.2743 368.781 45.8059C367.317 47.3376 365.575 48.5443 363.54 49.4571C361.505 50.3699 359.224 50.8186 356.727 50.8186ZM347.108 34.1097C347.108 35.6723 347.355 37.1266 347.848 38.4417C348.341 39.7567 349.019 40.9016 349.883 41.8763C350.746 42.8509 351.763 43.609 352.935 44.166C354.106 44.723 355.37 45.0014 356.727 45.0014C358.083 45.0014 359.347 44.723 360.519 44.166C361.69 43.609 362.708 42.8355 363.571 41.8453C364.434 40.8552 365.112 39.6948 365.606 38.3798C366.099 37.0647 366.346 35.6104 366.346 34.0478C366.346 32.5162 366.099 31.0929 365.606 29.7469C365.112 28.4009 364.434 27.2405 363.571 26.2504C362.708 25.2602 361.69 24.4867 360.519 23.9297C359.347 23.3727 358.083 23.0943 356.727 23.0943C355.417 23.0943 354.168 23.3882 352.996 23.9606C351.825 24.5331 350.808 25.3221 349.944 26.3123C349.081 27.3024 348.387 28.4628 347.879 29.8087C347.355 31.1393 347.108 32.5781 347.108 34.1097Z" fill="white"/>
<path d="M392.119 50.5092C389.945 50.5092 387.942 50.0605 386.138 49.1787C384.335 48.2968 382.778 47.09 381.483 45.5584C380.188 44.0267 379.186 42.2785 378.462 40.2982C377.737 38.3179 377.383 36.2293 377.383 34.0478C377.383 31.7426 377.752 29.5612 378.492 27.519C379.232 25.4768 380.265 23.6976 381.575 22.1969C382.886 20.6962 384.458 19.4895 386.292 18.6076C388.127 17.7258 390.146 17.2771 392.366 17.2771C394.955 17.2771 397.221 17.8959 399.179 19.1336C401.137 20.3713 402.74 21.9803 404.019 23.9606V17.8341H410V49.2715C410 51.6231 409.568 53.7117 408.705 55.5218C407.842 57.332 406.64 58.8791 405.098 60.1322C403.557 61.3854 401.738 62.3446 399.641 63.0099C397.545 63.6751 395.279 64 392.859 64C389.283 64 386.308 63.3967 383.949 62.1744C381.591 60.9522 379.602 59.2504 377.999 57.0689L381.822 53.4796C383.055 55.2124 384.643 56.5275 386.6 57.4403C388.558 58.3531 390.639 58.8017 392.859 58.8017C394.262 58.8017 395.587 58.6161 396.836 58.2448C398.084 57.8734 399.194 57.301 400.135 56.512C401.075 55.723 401.83 54.7328 402.385 53.5415C402.94 52.3502 403.217 50.9269 403.217 49.2715V44.3207C402.061 46.301 400.489 47.8327 398.47 48.9002C396.45 49.9677 394.339 50.5092 392.119 50.5092ZM394.339 45.0014C395.371 45.0014 396.358 44.8313 397.298 44.4754C398.239 44.1196 399.117 43.6554 399.919 43.0521C400.72 42.4487 401.414 41.768 401.984 41.0099C402.555 40.2518 402.971 39.4318 403.217 38.5654V30.0872C402.801 29.0507 402.277 28.1224 401.614 27.2715C400.952 26.4206 400.212 25.6934 399.364 25.0746C398.516 24.4557 397.622 23.9761 396.682 23.6203C395.741 23.2644 394.786 23.0943 393.845 23.0943C392.366 23.0943 391.04 23.4192 389.868 24.0535C388.697 24.6878 387.695 25.5387 386.878 26.5907C386.061 27.6428 385.414 28.8341 384.967 30.1491C384.52 31.4642 384.288 32.8256 384.288 34.2335C384.288 35.7187 384.55 37.1111 385.059 38.4107C385.568 39.7103 386.277 40.8397 387.186 41.8144C388.096 42.7891 389.144 43.5626 390.362 44.135C391.564 44.7075 392.89 45.0014 394.339 45.0014Z" fill="white"/>
<path d="M9.20258 55.9141H9.2194L9.20258 55.8973V55.9141Z" fill="#FF4673"/>
<path d="M55.6176 9.34459C58.0223 11.9283 49.683 24.3207 36.9196 37.1308C24.1562 49.9564 11.7782 58.3263 9.21939 55.9128C15.1849 62.1167 23.5551 65.9845 32.8347 65.9845C50.9624 65.9845 65.6526 51.2405 65.6526 33.0464C65.6526 23.7482 61.7989 15.3474 55.6176 9.34459Z" fill="url(#paint0_linear)"/>
<path d="M18.6672 18.7665C29.1492 8.21519 39.477 1.11392 43.269 1.62447C40.0474 0.572433 36.6099 0 33.0491 0C14.7981 0 0 14.8987 0 33.2785C0 36.9606 0.601173 40.488 1.69562 43.7989C0.801564 40.225 7.92315 29.5654 18.6672 18.7665Z" fill="url(#paint1_linear)"/>
<path d="M44.0244 2.02672C41.558 -0.386782 30.3053 7.16315 18.6518 18.8594C6.99828 30.5556 -0.400776 42.0506 2.0964 44.557C4.59358 47.0633 16.0621 39.6217 27.7156 27.9409C39.3691 16.2602 46.5678 4.50211 44.0244 2.02672Z" fill="#FE934B"/>
<path d="M9.46463 56.1603C11.931 58.5584 24.1394 50.0647 36.949 37.2082C49.7586 24.3516 58.1442 11.8819 55.647 9.36006C53.1499 6.83826 40.7256 15.2546 27.9006 28.1266C15.0756 40.9986 6.9212 53.685 9.46463 56.1603Z" fill="#FF4673"/>
<path d="M63.4469 21.4121C63.8168 25.3108 56.6182 35.7693 46.0128 46.4135C35.6233 56.8411 25.4188 63.9733 21.3493 63.9269C24.9255 65.2574 28.7946 65.9845 32.8333 65.9845C51.0843 65.9845 65.8824 51.1322 65.8824 32.8143C65.8824 28.73 64.8496 24.8312 63.4469 21.4121Z" fill="url(#paint2_linear)"/>
<defs>
<linearGradient id="paint0_linear" x1="64.4239" y1="18.3917" x2="23.0776" y2="67.2281" gradientUnits="userSpaceOnUse">
<stop stop-color="#C42E87"/>
<stop offset="1" stop-color="#E32E87"/>
</linearGradient>
<linearGradient id="paint1_linear" x1="0" y1="21.8976" x2="43.2589" y2="21.8976" gradientUnits="userSpaceOnUse">
<stop stop-color="#FEB838"/>
<stop offset="1" stop-color="#FED738"/>
</linearGradient>
<linearGradient id="paint2_linear" x1="21.3538" y1="43.7011" x2="65.8768" y2="43.7011" gradientUnits="userSpaceOnUse">
<stop stop-color="#2089A5"/>
<stop offset="1" stop-color="#2020A5"/>
</linearGradient>
</defs>
</svg>
