<svg width="500" height="203" viewBox="0 0 500 203" fill="none" xmlns="http://www.w3.org/2000/svg">
<path d="M140.047 120.819C137.827 120.819 135.777 120.385 133.881 119.519C131.985 118.653 130.367 117.461 129.01 115.93C127.654 114.398 126.59 112.619 125.835 110.577C125.079 108.534 124.694 106.338 124.694 103.986C124.694 101.634 125.049 99.4529 125.773 97.4262C126.497 95.3995 127.484 93.6357 128.763 92.1041C130.043 90.5724 131.553 89.3812 133.326 88.5148C135.099 87.6484 137.026 87.2152 139.122 87.2152C141.511 87.2152 143.654 87.7876 145.565 88.948C147.477 90.1083 148.972 91.609 150.036 93.4656V75.0239H158.298V110.669C158.298 111.536 158.437 112.155 158.73 112.526C159.022 112.897 159.516 113.098 160.209 113.145V120.2C158.776 120.494 157.604 120.633 156.695 120.633C155.215 120.633 153.997 120.262 153.057 119.519C152.117 118.776 151.577 117.802 151.454 116.61L151.269 114.568C150.082 116.626 148.463 118.188 146.429 119.241C144.394 120.277 142.267 120.819 140.047 120.819ZM142.205 113.764C142.991 113.764 143.793 113.624 144.61 113.361C145.427 113.098 146.197 112.712 146.891 112.217C147.585 111.722 148.217 111.149 148.772 110.484C149.327 109.819 149.743 109.107 150.036 108.318V100.582C149.712 99.6695 149.25 98.8341 148.648 98.076C148.047 97.3179 147.369 96.6526 146.614 96.0957C145.858 95.5387 145.057 95.09 144.209 94.7651C143.361 94.4402 142.529 94.2701 141.712 94.2701C140.479 94.2701 139.338 94.5331 138.29 95.0746C137.242 95.616 136.347 96.3432 135.608 97.2715C134.868 98.1997 134.297 99.2672 133.881 100.459C133.465 101.65 133.265 102.887 133.265 104.172C133.265 105.533 133.496 106.786 133.943 107.947C134.39 109.107 135.006 110.113 135.793 110.979C136.579 111.845 137.504 112.526 138.598 113.021C139.692 113.516 140.895 113.764 142.205 113.764Z" fill="black"/>
<path d="M181.42 120.819C178.83 120.819 176.487 120.37 174.391 119.488C172.295 118.606 170.506 117.399 169.027 115.868C167.547 114.336 166.406 112.572 165.605 110.546C164.803 108.519 164.402 106.399 164.402 104.172C164.402 101.866 164.788 99.685 165.574 97.6428C166.36 95.6006 167.485 93.8059 168.965 92.2588C170.445 90.7117 172.248 89.4895 174.36 88.5767C176.472 87.6639 178.846 87.2152 181.482 87.2152C184.118 87.2152 186.461 87.6639 188.542 88.5767C190.623 89.4895 192.38 90.6962 193.844 92.2279C195.309 93.7595 196.419 95.5232 197.174 97.55C197.929 99.5767 198.315 101.681 198.315 103.862C198.315 104.404 198.299 104.914 198.284 105.409C198.268 105.904 198.207 106.322 198.13 106.647H173.158C173.281 107.931 173.589 109.061 174.083 110.051C174.576 111.041 175.208 111.892 175.994 112.588C176.78 113.284 177.659 113.826 178.645 114.197C179.632 114.568 180.665 114.754 181.728 114.754C183.378 114.754 184.919 114.352 186.384 113.547C187.848 112.743 188.835 111.675 189.374 110.36L196.465 112.34C195.278 114.816 193.366 116.842 190.761 118.436C188.156 120.014 185.042 120.819 181.42 120.819ZM189.806 101.263C189.605 98.8341 188.711 96.8847 187.123 95.4149C185.536 93.9452 183.624 93.218 181.358 93.218C180.249 93.218 179.216 93.4191 178.245 93.8059C177.273 94.1927 176.426 94.7497 175.686 95.4459C174.946 96.1421 174.345 96.993 173.867 97.9831C173.389 98.9733 173.112 100.072 173.034 101.263H189.806V101.263Z" fill="black"/>
<path d="M218.354 120.819C215.764 120.819 213.421 120.37 211.325 119.488C209.228 118.606 207.44 117.399 205.96 115.868C204.48 114.336 203.34 112.572 202.538 110.546C201.737 108.519 201.336 106.399 201.336 104.172C201.336 101.866 201.721 99.685 202.507 97.6428C203.293 95.6006 204.419 93.8059 205.899 92.2588C207.378 90.7117 209.182 89.4895 211.294 88.5767C213.406 87.6639 215.779 87.2152 218.415 87.2152C221.051 87.2152 223.394 87.6639 225.475 88.5767C227.556 89.4895 229.313 90.6962 230.778 92.2279C232.242 93.7595 233.352 95.5232 234.107 97.55C234.863 99.5767 235.248 101.681 235.248 103.862C235.248 104.404 235.233 104.914 235.217 105.409C235.202 105.904 235.14 106.322 235.063 106.647H210.091C210.215 107.931 210.523 109.061 211.016 110.051C211.51 111.041 212.142 111.892 212.928 112.588C213.714 113.284 214.592 113.826 215.579 114.197C216.566 114.568 217.598 114.754 218.662 114.754C220.311 114.754 221.853 114.352 223.317 113.547C224.782 112.743 225.768 111.675 226.308 110.36L233.398 112.34C232.211 114.816 230.3 116.842 227.695 118.436C225.09 120.014 221.961 120.819 218.354 120.819ZM226.739 101.263C226.539 98.8341 225.645 96.8847 224.057 95.4149C222.469 93.9452 220.558 93.218 218.292 93.218C217.182 93.218 216.149 93.4191 215.178 93.8059C214.207 94.1927 213.359 94.7497 212.619 95.4459C211.879 96.1421 211.278 96.993 210.8 97.9831C210.323 98.9733 210.045 100.072 209.968 101.263H226.739V101.263Z" fill="black"/>
<path d="M259.665 120.819C257.122 120.819 254.902 120.246 253.006 119.117C251.11 117.987 249.63 116.44 248.566 114.506V133.381H240.304V87.7722H247.518V93.3418C248.705 91.4388 250.247 89.9536 252.143 88.8552C254.039 87.7567 256.212 87.2152 258.678 87.2152C260.852 87.2152 262.871 87.6639 264.721 88.5457C266.571 89.4276 268.158 90.6343 269.5 92.135C270.841 93.6357 271.889 95.4149 272.644 97.4571C273.399 99.4993 273.785 101.65 273.785 103.924C273.785 106.276 273.43 108.488 272.737 110.546C272.043 112.603 271.056 114.398 269.808 115.93C268.559 117.461 267.064 118.653 265.338 119.519C263.611 120.385 261.715 120.819 259.665 120.819ZM256.89 113.764C258.124 113.764 259.264 113.501 260.312 112.959C261.361 112.418 262.255 111.706 262.995 110.793C263.734 109.88 264.305 108.828 264.721 107.637C265.137 106.446 265.338 105.208 265.338 103.924C265.338 102.563 265.106 101.294 264.659 100.118C264.212 98.9424 263.58 97.9213 262.779 97.0549C261.977 96.1885 261.037 95.5078 259.942 95.0127C258.848 94.5176 257.677 94.2701 256.397 94.2701C255.611 94.2701 254.809 94.4093 253.992 94.6723C253.175 94.9353 252.405 95.3221 251.711 95.8172C251.017 96.3123 250.385 96.8847 249.83 97.5499C249.276 98.2152 248.859 98.9269 248.566 99.7159V107.328C249.306 109.184 250.432 110.716 251.958 111.938C253.484 113.145 255.118 113.764 256.89 113.764Z" fill="black"/>
<path d="M292.837 120.819C290.664 120.819 288.645 120.37 286.795 119.488C284.945 118.606 283.342 117.399 281.985 115.868C280.629 114.336 279.565 112.557 278.81 110.515C278.055 108.473 277.669 106.276 277.669 103.924C277.669 101.65 278.024 99.5148 278.748 97.519C279.473 95.5232 280.475 93.7595 281.77 92.2279C283.065 90.6962 284.591 89.4895 286.332 88.6076C288.074 87.7258 290.001 87.2771 292.098 87.2771C294.687 87.2771 296.969 87.9114 298.942 89.1646C300.915 90.4177 302.456 92.0267 303.566 93.9606V75.0239H310.349V112.155C310.349 112.944 310.487 113.501 310.749 113.826C311.011 114.151 311.505 114.336 312.198 114.383V120.2C311.505 120.324 310.934 120.401 310.503 120.447C310.071 120.494 309.716 120.509 309.424 120.509C308.067 120.509 306.957 120.153 306.094 119.457C305.231 118.761 304.753 117.848 304.676 116.734L304.553 114.321C303.366 116.347 301.732 117.925 299.682 119.086C297.631 120.231 295.335 120.819 292.837 120.819ZM294.502 115.001C295.489 115.001 296.475 114.831 297.462 114.506C298.448 114.181 299.358 113.717 300.175 113.145C300.992 112.572 301.701 111.892 302.302 111.103C302.903 110.314 303.319 109.478 303.566 108.565V100.087C303.196 99.0507 302.672 98.1069 301.994 97.2405C301.316 96.3741 300.545 95.6315 299.682 95.0127C298.818 94.3938 297.909 93.9142 296.938 93.5893C295.967 93.2644 294.995 93.0942 294.009 93.0942C292.652 93.0942 291.404 93.4037 290.279 94.0225C289.153 94.6414 288.167 95.4613 287.35 96.4979C286.533 97.5345 285.885 98.7103 285.408 100.025C284.93 101.34 284.698 102.702 284.698 104.11C284.698 105.595 284.961 107.003 285.469 108.318C285.978 109.633 286.687 110.793 287.596 111.783C288.506 112.774 289.539 113.563 290.71 114.135C291.882 114.707 293.146 115.001 294.502 115.001Z" fill="black"/>
<path d="M318.981 82.512V75.0239H325.763V82.512H318.981V82.512ZM318.981 120.2V87.8341H325.763V120.2H318.981Z" fill="black"/>
<path d="M342.473 120.819C340.916 120.819 339.467 120.556 338.126 120.045C336.785 119.534 335.644 118.823 334.673 117.91C333.702 116.997 332.946 115.93 332.392 114.692C331.837 113.454 331.559 112.108 331.559 110.67C331.559 109.138 331.883 107.761 332.546 106.523C333.208 105.286 334.133 104.218 335.351 103.305C336.569 102.392 338.002 101.696 339.667 101.201C341.332 100.706 343.166 100.459 345.186 100.459C346.712 100.459 348.207 100.598 349.687 100.861C351.167 101.124 352.508 101.495 353.695 101.944V99.7159C353.695 97.3179 353.016 95.4613 351.66 94.1154C350.303 92.7694 348.346 92.1041 345.802 92.1041C344.076 92.1041 342.38 92.429 340.715 93.0633C339.051 93.6976 337.34 94.6259 335.567 95.8172L333.471 91.4853C337.617 88.685 341.933 87.2771 346.419 87.2771C350.858 87.2771 354.311 88.4065 356.778 90.6808C359.244 92.955 360.477 96.204 360.477 100.459V112.155C360.477 113.594 361.078 114.336 362.265 114.383V120.2C361.602 120.324 361.047 120.401 360.57 120.447C360.092 120.494 359.629 120.509 359.182 120.509C357.872 120.509 356.855 120.184 356.13 119.519C355.406 118.854 354.974 118.018 354.804 116.982L354.62 114.94C353.186 116.843 351.398 118.297 349.286 119.302C347.159 120.308 344.893 120.819 342.473 120.819ZM344.322 115.806C345.972 115.806 347.513 115.512 348.978 114.909C350.442 114.305 351.583 113.47 352.4 112.402C353.263 111.66 353.695 110.871 353.695 110.051V105.781C352.539 105.332 351.321 104.976 350.026 104.729C348.731 104.481 347.467 104.357 346.234 104.357C343.814 104.357 341.825 104.883 340.284 105.935C338.742 106.987 337.972 108.38 337.972 110.113C337.972 111.722 338.573 113.068 339.76 114.166C340.947 115.249 342.473 115.806 344.322 115.806Z" fill="black"/>
<path d="M368.739 75.0239H375.522V110.855C375.522 112.046 375.83 112.99 376.447 113.671C377.063 114.352 377.927 114.692 379.036 114.692C379.483 114.692 380.008 114.615 380.609 114.444C381.21 114.274 381.765 114.089 382.304 113.888L383.291 119.21C382.304 119.658 381.133 120.03 379.776 120.293C378.42 120.556 377.202 120.695 376.138 120.695C373.795 120.695 371.976 120.06 370.682 118.776C369.387 117.492 368.739 115.682 368.739 113.331V75.0239Z" fill="black"/>
<path d="M401.727 120.819C399.183 120.819 396.887 120.37 394.852 119.457C392.817 118.544 391.075 117.338 389.642 115.806C388.208 114.274 387.098 112.495 386.312 110.453C385.526 108.411 385.141 106.276 385.141 104.048C385.141 101.82 385.526 99.685 386.312 97.6428C387.098 95.6006 388.208 93.8214 389.673 92.2898C391.137 90.7581 392.879 89.5514 394.914 88.6386C396.948 87.7258 399.214 87.2771 401.727 87.2771C404.239 87.2771 406.505 87.7258 408.54 88.6386C410.575 89.5514 412.317 90.7581 413.781 92.2898C415.246 93.8214 416.355 95.6006 417.142 97.6428C417.928 99.685 418.313 101.82 418.313 104.048C418.313 106.276 417.928 108.411 417.142 110.453C416.355 112.495 415.246 114.274 413.781 115.806C412.317 117.338 410.575 118.544 408.54 119.457C406.505 120.37 404.224 120.819 401.727 120.819ZM392.108 104.11C392.108 105.672 392.355 107.127 392.848 108.442C393.341 109.757 394.019 110.902 394.883 111.876C395.746 112.851 396.763 113.609 397.935 114.166C399.106 114.723 400.37 115.001 401.727 115.001C403.083 115.001 404.347 114.723 405.519 114.166C406.69 113.609 407.708 112.835 408.571 111.845C409.434 110.855 410.112 109.695 410.606 108.38C411.099 107.065 411.346 105.61 411.346 104.048C411.346 102.516 411.099 101.093 410.606 99.7469C410.112 98.4009 409.434 97.2405 408.571 96.2504C407.708 95.2602 406.69 94.4867 405.519 93.9297C404.347 93.3727 403.083 93.0943 401.727 93.0943C400.417 93.0943 399.168 93.3882 397.996 93.9606C396.825 94.5331 395.808 95.3221 394.944 96.3123C394.081 97.3024 393.387 98.4628 392.879 99.8087C392.355 101.139 392.108 102.578 392.108 104.11Z" fill="black"/>
<path d="M437.119 120.509C434.945 120.509 432.942 120.061 431.138 119.179C429.335 118.297 427.778 117.09 426.483 115.558C425.188 114.027 424.186 112.279 423.462 110.298C422.737 108.318 422.383 106.229 422.383 104.048C422.383 101.743 422.752 99.5612 423.492 97.519C424.232 95.4768 425.265 93.6976 426.575 92.1969C427.886 90.6962 429.458 89.4895 431.292 88.6076C433.127 87.7258 435.146 87.2771 437.366 87.2771C439.955 87.2771 442.221 87.8959 444.179 89.1336C446.137 90.3713 447.74 91.9803 449.019 93.9606V87.8341H455V119.271C455 121.623 454.568 123.712 453.705 125.522C452.842 127.332 451.64 128.879 450.098 130.132C448.557 131.385 446.738 132.345 444.641 133.01C442.545 133.675 440.279 134 437.859 134C434.283 134 431.308 133.397 428.949 132.174C426.591 130.952 424.602 129.25 422.999 127.069L426.822 123.48C428.055 125.212 429.643 126.527 431.6 127.44C433.558 128.353 435.639 128.802 437.859 128.802C439.262 128.802 440.587 128.616 441.836 128.245C443.084 127.873 444.194 127.301 445.135 126.512C446.075 125.723 446.83 124.733 447.385 123.542C447.94 122.35 448.217 120.927 448.217 119.271V114.321C447.061 116.301 445.489 117.833 443.47 118.9C441.45 119.968 439.339 120.509 437.119 120.509ZM439.339 115.001C440.371 115.001 441.358 114.831 442.298 114.475C443.239 114.12 444.117 113.655 444.919 113.052C445.72 112.449 446.414 111.768 446.984 111.01C447.555 110.252 447.971 109.432 448.217 108.565V100.087C447.801 99.0507 447.277 98.1224 446.614 97.2715C445.952 96.4206 445.212 95.6934 444.364 95.0746C443.516 94.4557 442.622 93.9761 441.682 93.6203C440.741 93.2644 439.786 93.0943 438.845 93.0943C437.366 93.0943 436.04 93.4192 434.868 94.0535C433.697 94.6878 432.695 95.5387 431.878 96.5907C431.061 97.6428 430.414 98.8341 429.967 100.149C429.52 101.464 429.288 102.826 429.288 104.234C429.288 105.719 429.55 107.111 430.059 108.411C430.568 109.71 431.277 110.84 432.186 111.814C433.096 112.789 434.144 113.563 435.362 114.135C436.564 114.707 437.89 115.001 439.339 115.001Z" fill="black"/>
<path d="M54.2026 125.914H54.2194L54.2026 125.897V125.914Z" fill="#FF4673"/>
<path d="M100.618 79.3446C103.022 81.9283 94.683 94.3207 81.9196 107.131C69.1562 119.956 56.7782 128.326 54.2194 125.913C60.1849 132.117 68.5551 135.985 77.8347 135.985C95.9624 135.985 110.653 121.241 110.653 103.046C110.653 93.7483 106.799 85.3474 100.618 79.3446Z" fill="url(#paint0_linear)"/>
<path d="M63.6672 88.7665C74.1492 78.2152 84.477 71.1139 88.269 71.6245C85.0474 70.5724 81.6099 70 78.0491 70C59.7981 70 45 84.8987 45 103.278C45 106.961 45.6012 110.488 46.6956 113.799C45.8016 110.225 52.9232 99.5654 63.6672 88.7665Z" fill="url(#paint1_linear)"/>
<path d="M89.0244 72.0267C86.558 69.6132 75.3053 77.1632 63.6518 88.8594C51.9983 100.556 44.5992 112.051 47.0964 114.557C49.5936 117.063 61.0621 109.622 72.7156 97.9409C84.3691 86.2602 91.5678 74.5021 89.0244 72.0267Z" fill="#FE934B"/>
<path d="M54.4646 126.16C56.931 128.558 69.1394 120.065 81.949 107.208C94.7586 94.3516 103.144 81.8818 100.647 79.36C98.1499 76.8382 85.7256 85.2546 72.9006 98.1266C60.0756 110.999 51.9212 123.685 54.4646 126.16Z" fill="#FF4673"/>
<path d="M108.447 91.4121C108.817 95.3108 101.618 105.769 91.0129 116.414C80.6234 126.841 70.4188 133.973 66.3493 133.927C69.9256 135.257 73.7946 135.985 77.8333 135.985C96.0843 135.985 110.882 121.132 110.882 102.814C110.882 98.73 109.85 94.8312 108.447 91.4121Z" fill="url(#paint2_linear)"/>
<defs>
<linearGradient id="paint0_linear" x1="109.424" y1="88.3917" x2="68.0777" y2="137.228" gradientUnits="userSpaceOnUse">
<stop stop-color="#C42E87"/>
<stop offset="1" stop-color="#E32E87"/>
</linearGradient>
<linearGradient id="paint1_linear" x1="45" y1="91.8976" x2="88.2589" y2="91.8976" gradientUnits="userSpaceOnUse">
<stop stop-color="#FEB838"/>
<stop offset="1" stop-color="#FED738"/>
</linearGradient>
<linearGradient id="paint2_linear" x1="66.3538" y1="113.701" x2="110.877" y2="113.701" gradientUnits="userSpaceOnUse">
<stop stop-color="#2089A5"/>
<stop offset="1" stop-color="#2020A5"/>
</linearGradient>
</defs>
</svg>
