<svg width="500" height="500" viewBox="0 0 500 500" fill="none" xmlns="http://www.w3.org/2000/svg">
<path d="M92.1423 379.179C89.8084 379.179 87.6529 378.724 85.6594 377.816C83.666 376.907 81.9642 375.658 80.538 374.052C79.1118 372.446 77.9935 370.581 77.1993 368.439C76.4052 366.298 76 363.994 76 361.529C76 359.063 76.3728 356.775 77.1345 354.65C77.8962 352.525 78.9335 350.676 80.2787 349.07C81.6239 347.464 83.2122 346.215 85.076 345.306C86.9398 344.398 88.9657 343.944 91.1698 343.944C93.6819 343.944 95.9347 344.544 97.9444 345.76C99.9541 346.977 101.526 348.551 102.644 350.497V331.16H111.331V368.537C111.331 369.445 111.477 370.094 111.785 370.483C112.093 370.873 112.612 371.084 113.341 371.132V378.53C111.834 378.838 110.602 378.984 109.646 378.984C108.09 378.984 106.81 378.595 105.821 377.816C104.832 377.037 104.265 376.015 104.136 374.766L103.941 372.625C102.693 374.782 100.991 376.421 98.852 377.524C96.7127 378.627 94.4761 379.179 92.1423 379.179ZM94.4113 371.781C95.2378 371.781 96.0806 371.635 96.9396 371.359C97.7985 371.084 98.6089 370.678 99.3382 370.159C100.068 369.64 100.732 369.04 101.315 368.342C101.899 367.644 102.337 366.898 102.644 366.071V357.96C102.304 357.003 101.818 356.127 101.186 355.332C100.554 354.537 99.8406 353.839 99.0465 353.255C98.2523 352.671 97.4096 352.201 96.5182 351.86C95.6268 351.519 94.7516 351.341 93.8926 351.341C92.5961 351.341 91.3967 351.617 90.2947 352.185C89.1926 352.752 88.2526 353.515 87.4746 354.488C86.6967 355.461 86.097 356.581 85.6594 357.83C85.2218 359.079 85.0111 360.377 85.0111 361.723C85.0111 363.151 85.2543 364.465 85.7243 365.682C86.1943 366.898 86.8425 367.953 87.6691 368.861C88.4957 369.77 89.4681 370.483 90.6188 371.002C91.7695 371.522 93.0337 371.781 94.4113 371.781Z" fill="black"/>
<path d="M135.642 379.179C132.919 379.179 130.456 378.708 128.252 377.783C126.048 376.859 124.168 375.593 122.612 373.987C121.056 372.381 119.856 370.532 119.014 368.407C118.171 366.282 117.75 364.059 117.75 361.723C117.75 359.306 118.155 357.019 118.981 354.877C119.808 352.736 120.991 350.854 122.547 349.232C124.103 347.61 125.999 346.328 128.219 345.371C130.44 344.414 132.936 343.944 135.707 343.944C138.478 343.944 140.942 344.414 143.13 345.371C145.318 346.328 147.165 347.594 148.705 349.2C150.245 350.806 151.412 352.655 152.206 354.78C153 356.905 153.405 359.112 153.405 361.399C153.405 361.967 153.389 362.502 153.373 363.021C153.357 363.54 153.292 363.978 153.211 364.319H126.955C127.085 365.665 127.409 366.85 127.928 367.888C128.446 368.926 129.111 369.818 129.937 370.548C130.764 371.278 131.688 371.846 132.725 372.235C133.762 372.625 134.848 372.819 135.966 372.819C137.7 372.819 139.321 372.398 140.861 371.554C142.401 370.71 143.438 369.591 144.005 368.212L151.46 370.289C150.212 372.884 148.203 375.009 145.464 376.68C142.725 378.351 139.451 379.179 135.642 379.179ZM144.459 358.674C144.248 356.127 143.308 354.083 141.639 352.541C139.969 351 137.96 350.238 135.577 350.238C134.41 350.238 133.325 350.449 132.303 350.854C131.282 351.26 130.391 351.844 129.613 352.574C128.835 353.304 128.203 354.196 127.701 355.234C127.198 356.273 126.907 357.424 126.825 358.674H144.459Z" fill="black"/>
<path d="M174.474 379.179C171.752 379.179 169.288 378.708 167.084 377.783C164.88 376.859 163 375.593 161.444 373.987C159.888 372.381 158.689 370.532 157.846 368.407C157.003 366.282 156.582 364.059 156.582 361.723C156.582 359.306 156.987 357.019 157.813 354.877C158.64 352.736 159.823 350.854 161.379 349.232C162.935 347.61 164.831 346.328 167.051 345.371C169.272 344.414 171.768 343.944 174.539 343.944C177.311 343.944 179.774 344.414 181.962 345.371C184.15 346.328 185.998 347.594 187.537 349.2C189.077 350.806 190.244 352.655 191.038 354.78C191.832 356.905 192.237 359.112 192.237 361.399C192.237 361.967 192.221 362.502 192.205 363.021C192.189 363.54 192.124 363.978 192.043 364.319H165.787C165.917 365.665 166.241 366.85 166.76 367.888C167.278 368.926 167.943 369.818 168.769 370.548C169.596 371.278 170.52 371.846 171.557 372.235C172.594 372.625 173.68 372.819 174.798 372.819C176.533 372.819 178.153 372.398 179.693 371.554C181.233 370.71 182.27 369.591 182.837 368.212L190.292 370.289C189.044 372.884 187.035 375.009 184.296 376.68C181.557 378.351 178.283 379.179 174.474 379.179ZM183.291 358.674C183.08 356.127 182.14 354.083 180.471 352.541C178.802 351 176.792 350.238 174.409 350.238C173.243 350.238 172.157 350.449 171.136 350.854C170.115 351.26 169.223 351.844 168.445 352.574C167.667 353.304 167.035 354.196 166.533 355.234C166.03 356.273 165.739 357.424 165.658 358.674H183.291Z" fill="black"/>
<path d="M217.909 379.179C215.235 379.179 212.901 378.578 210.908 377.394C208.914 376.21 207.359 374.588 206.24 372.56V392.351H197.553V344.528H205.138V350.368C206.386 348.372 208.007 346.815 210 345.663C211.994 344.511 214.279 343.944 216.872 343.944C219.157 343.944 221.28 344.414 223.225 345.339C225.17 346.263 226.84 347.529 228.25 349.102C229.66 350.676 230.762 352.541 231.556 354.683C232.35 356.824 232.755 359.079 232.755 361.464C232.755 363.93 232.382 366.249 231.653 368.407C230.924 370.564 229.886 372.446 228.574 374.052C227.261 375.658 225.689 376.907 223.874 377.816C222.058 378.724 220.065 379.179 217.909 379.179ZM214.992 371.781C216.289 371.781 217.488 371.505 218.59 370.938C219.692 370.37 220.632 369.624 221.41 368.666C222.188 367.709 222.788 366.606 223.225 365.357C223.663 364.108 223.874 362.81 223.874 361.464C223.874 360.036 223.631 358.706 223.161 357.473C222.691 356.24 222.026 355.169 221.183 354.261C220.34 353.353 219.352 352.639 218.201 352.12C217.05 351.601 215.819 351.341 214.474 351.341C213.647 351.341 212.804 351.487 211.945 351.763C211.086 352.039 210.276 352.444 209.547 352.963C208.817 353.482 208.153 354.083 207.569 354.78C206.986 355.478 206.548 356.224 206.24 357.051V365.033C207.018 366.979 208.201 368.585 209.806 369.867C211.41 371.148 213.128 371.781 214.992 371.781Z" fill="black"/>
<path d="M252.787 379.179C250.502 379.179 248.379 378.708 246.434 377.783C244.489 376.859 242.803 375.593 241.377 373.987C239.951 372.381 238.833 370.516 238.039 368.374C237.244 366.233 236.839 363.93 236.839 361.464C236.839 359.079 237.212 356.84 237.974 354.748C238.736 352.655 239.789 350.806 241.15 349.2C242.512 347.594 244.116 346.328 245.948 345.404C247.779 344.479 249.805 344.009 252.009 344.009C254.732 344.009 257.131 344.674 259.205 345.988C261.28 347.302 262.9 348.989 264.067 351.017V331.16H271.198V370.094C271.198 370.921 271.344 371.505 271.62 371.846C271.895 372.187 272.414 372.381 273.143 372.43V378.53C272.414 378.659 271.814 378.741 271.36 378.789C270.907 378.838 270.534 378.854 270.226 378.854C268.8 378.854 267.633 378.481 266.725 377.751C265.818 377.021 265.315 376.064 265.234 374.896L265.104 372.365C263.856 374.49 262.139 376.145 259.983 377.362C257.827 378.578 255.429 379.179 252.787 379.179ZM254.537 373.079C255.575 373.079 256.612 372.9 257.649 372.56C258.686 372.219 259.643 371.732 260.502 371.132C261.361 370.532 262.106 369.818 262.738 368.991C263.37 368.164 263.808 367.288 264.067 366.33V357.441C263.678 356.354 263.127 355.364 262.414 354.456C261.701 353.547 260.891 352.769 259.983 352.12C259.075 351.471 258.119 350.968 257.098 350.627C256.077 350.287 255.056 350.108 254.019 350.108C252.593 350.108 251.28 350.433 250.097 351.081C248.914 351.73 247.876 352.59 247.017 353.677C246.158 354.764 245.478 355.997 244.975 357.376C244.473 358.755 244.23 360.182 244.23 361.658C244.23 363.216 244.505 364.692 245.04 366.071C245.575 367.45 246.32 368.666 247.277 369.705C248.233 370.743 249.319 371.57 250.55 372.171C251.782 372.787 253.111 373.079 254.537 373.079Z" fill="black"/>
<path d="M280.274 339.012V331.16H287.405V339.012H280.274ZM280.274 378.53V344.593H287.405V378.53H280.274Z" fill="black"/>
<path d="M304.974 379.179C303.337 379.179 301.814 378.903 300.404 378.367C298.993 377.832 297.794 377.086 296.773 376.129C295.752 375.172 294.958 374.052 294.374 372.755C293.791 371.457 293.499 370.045 293.499 368.537C293.499 366.931 293.84 365.487 294.537 364.189C295.233 362.891 296.206 361.772 297.486 360.815C298.767 359.858 300.274 359.128 302.024 358.609C303.775 358.09 305.703 357.83 307.826 357.83C309.431 357.83 311.003 357.976 312.559 358.252C314.115 358.528 315.525 358.917 316.773 359.387V357.051C316.773 354.537 316.06 352.59 314.633 351.179C313.207 349.767 311.149 349.07 308.475 349.07C306.659 349.07 304.877 349.411 303.126 350.076C301.376 350.741 299.577 351.714 297.713 352.963L295.509 348.421C299.869 345.485 304.407 344.009 309.123 344.009C313.791 344.009 317.421 345.193 320.014 347.577C322.607 349.962 323.904 353.369 323.904 357.83V370.094C323.904 371.603 324.536 372.381 325.784 372.43V378.53C325.087 378.659 324.503 378.741 324.001 378.789C323.499 378.838 323.012 378.854 322.542 378.854C321.165 378.854 320.095 378.513 319.333 377.816C318.572 377.118 318.118 376.242 317.94 375.155L317.745 373.014C316.238 375.009 314.358 376.534 312.137 377.589C309.901 378.659 307.518 379.179 304.974 379.179ZM306.919 373.922C308.653 373.922 310.274 373.614 311.813 372.982C313.353 372.349 314.552 371.473 315.411 370.354C316.319 369.575 316.773 368.748 316.773 367.888V363.41C315.557 362.94 314.277 362.567 312.915 362.307C311.554 362.048 310.225 361.918 308.928 361.918C306.384 361.918 304.293 362.47 302.672 363.573C301.052 364.676 300.241 366.136 300.241 367.953C300.241 369.64 300.874 371.051 302.121 372.203C303.369 373.355 304.974 373.922 306.919 373.922Z" fill="black"/>
<path d="M332.591 331.16H339.722V368.731C339.722 369.98 340.046 370.97 340.694 371.684C341.343 372.398 342.25 372.755 343.417 372.755C343.887 372.755 344.438 372.673 345.07 372.495C345.702 372.317 346.286 372.122 346.853 371.911L347.89 377.491C346.853 377.962 345.621 378.351 344.195 378.627C342.769 378.903 341.489 379.049 340.37 379.049C337.907 379.049 335.994 378.384 334.633 377.037C333.272 375.691 332.591 373.793 332.591 371.327V331.16Z" fill="black"/>
<path d="M367.274 379.179C364.6 379.179 362.185 378.708 360.046 377.751C357.906 376.794 356.075 375.529 354.568 373.922C353.06 372.316 351.893 370.451 351.067 368.31C350.24 366.168 349.835 363.93 349.835 361.594C349.835 359.258 350.24 357.019 351.067 354.877C351.893 352.736 353.06 350.871 354.6 349.265C356.14 347.659 357.971 346.393 360.11 345.436C362.25 344.479 364.632 344.009 367.274 344.009C369.916 344.009 372.298 344.479 374.438 345.436C376.577 346.393 378.408 347.659 379.948 349.265C381.488 350.871 382.655 352.736 383.481 354.877C384.308 357.019 384.713 359.258 384.713 361.594C384.713 363.93 384.308 366.168 383.481 368.31C382.655 370.451 381.488 372.316 379.948 373.922C378.408 375.529 376.577 376.794 374.438 377.751C372.298 378.708 369.9 379.179 367.274 379.179ZM357.161 361.658C357.161 363.297 357.42 364.822 357.939 366.201C358.457 367.58 359.17 368.78 360.078 369.802C360.986 370.824 362.055 371.619 363.287 372.203C364.519 372.787 365.848 373.079 367.274 373.079C368.7 373.079 370.029 372.787 371.261 372.203C372.493 371.619 373.562 370.808 374.47 369.77C375.378 368.731 376.091 367.515 376.609 366.136C377.128 364.757 377.387 363.232 377.387 361.594C377.387 359.988 377.128 358.495 376.609 357.084C376.091 355.672 375.378 354.456 374.47 353.417C373.562 352.379 372.493 351.568 371.261 350.984C370.029 350.4 368.7 350.108 367.274 350.108C365.896 350.108 364.584 350.416 363.352 351.017C362.12 351.617 361.05 352.444 360.143 353.482C359.235 354.521 358.506 355.737 357.971 357.149C357.42 358.56 357.161 360.069 357.161 361.658Z" fill="black"/>
<path d="M404.486 378.854C402.2 378.854 400.093 378.384 398.197 377.459C396.301 376.534 394.664 375.269 393.303 373.663C391.941 372.057 390.888 370.224 390.126 368.147C389.364 366.071 388.992 363.881 388.992 361.594C388.992 359.176 389.38 356.889 390.158 354.748C390.936 352.606 392.022 350.741 393.4 349.167C394.777 347.594 396.431 346.328 398.359 345.404C400.288 344.479 402.411 344.009 404.745 344.009C407.468 344.009 409.85 344.657 411.908 345.955C413.967 347.253 415.652 348.94 416.997 351.017V344.593H423.286V377.556C423.286 380.022 422.832 382.212 421.924 384.11C421.017 386.008 419.753 387.63 418.132 388.944C416.511 390.258 414.599 391.264 412.395 391.962C410.19 392.659 407.808 393 405.263 393C401.503 393 398.375 392.367 395.896 391.086C393.416 389.804 391.325 388.02 389.64 385.732L393.659 381.969C394.956 383.786 396.625 385.165 398.683 386.122C400.742 387.079 402.93 387.549 405.263 387.549C406.738 387.549 408.132 387.355 409.445 386.965C410.758 386.576 411.925 385.976 412.913 385.148C413.902 384.321 414.696 383.283 415.279 382.034C415.863 380.785 416.155 379.292 416.155 377.556V372.365C414.939 374.442 413.286 376.048 411.163 377.167C409.04 378.286 406.819 378.854 404.486 378.854ZM406.819 373.079C407.905 373.079 408.942 372.9 409.931 372.527C410.92 372.154 411.844 371.668 412.686 371.035C413.529 370.402 414.258 369.688 414.858 368.894C415.458 368.099 415.895 367.239 416.155 366.33V357.441C415.717 356.354 415.166 355.38 414.469 354.488C413.772 353.596 412.994 352.833 412.103 352.185C411.211 351.536 410.271 351.033 409.283 350.66C408.294 350.287 407.289 350.108 406.301 350.108C404.745 350.108 403.351 350.449 402.119 351.114C400.888 351.779 399.834 352.671 398.975 353.774C398.116 354.877 397.435 356.127 396.965 357.505C396.495 358.884 396.252 360.312 396.252 361.788C396.252 363.346 396.528 364.806 397.063 366.168C397.598 367.531 398.343 368.715 399.299 369.737C400.255 370.759 401.358 371.57 402.638 372.171C403.902 372.787 405.296 373.079 406.819 373.079Z" fill="black"/>
<path d="M182.934 266.547C182.95 266.563 182.966 266.563 182.966 266.579C182.95 266.563 182.95 266.547 182.934 266.547Z" fill="#FF4673"/>
<path d="M315.734 133.686C322.605 141.035 298.748 176.448 262.234 212.997C225.703 249.562 190.291 273.474 182.965 266.579C200.047 284.294 223.985 295.341 250.516 295.341C302.395 295.341 344.436 253.244 344.436 201.333C344.453 174.761 333.432 150.784 315.734 133.686Z" fill="url(#paint0_linear)"/>
<path d="M209.984 160.55C239.983 130.425 269.545 110.163 280.371 111.656C271.166 108.638 261.344 107 251.134 107C198.915 107 156.582 149.519 156.582 201.966C156.582 212.461 158.3 222.552 161.444 231.977C158.867 221.773 179.272 191.389 209.984 160.55Z" fill="url(#paint1_linear)"/>
<path d="M282.576 112.775C275.525 105.913 243.306 127.44 209.984 160.793C176.662 194.146 155.431 226.997 162.594 234.151C169.758 241.305 202.561 220.07 235.883 186.717C269.205 153.363 289.82 119.832 282.576 112.775Z" fill="#FE934B"/>
<path d="M183.664 267.277C190.73 274.139 225.656 249.886 262.333 213.175C299.01 176.464 322.964 140.888 315.8 133.734C308.637 126.58 273.111 150.541 236.434 187.252C199.757 223.963 176.403 260.236 183.664 267.277Z" fill="#FF4673"/>
<path d="M338.166 168.093C339.203 179.222 318.636 209.087 288.297 239.455C258.573 269.207 229.352 289.583 217.699 289.437C227.925 293.233 238.995 295.325 250.55 295.325C302.77 295.325 345.103 252.952 345.103 200.684C345.103 189.004 342.169 177.875 338.166 168.093Z" fill="url(#paint2_linear)"/>
<defs>
<linearGradient id="paint0_linear" x1="340.934" y1="159.488" x2="222.99" y2="299.177" gradientUnits="userSpaceOnUse">
<stop stop-color="#C42E87"/>
<stop offset="1" stop-color="#E32E87"/>
</linearGradient>
<linearGradient id="paint1_linear" x1="156.582" y1="169.493" x2="280.373" y2="169.493" gradientUnits="userSpaceOnUse">
<stop stop-color="#FEB838"/>
<stop offset="1" stop-color="#FED738"/>
</linearGradient>
<linearGradient id="paint2_linear" x1="217.689" y1="231.718" x2="345.098" y2="231.718" gradientUnits="userSpaceOnUse">
<stop stop-color="#2089A5"/>
<stop offset="1" stop-color="#2020A5"/>
</linearGradient>
</defs>
</svg>
